# xmcd
#
# Track frame offsets: 
#        182
#        22242
#        37447
#        49117
#        73805
#        90712
#        109530
#        122022
#        137202
#        153047
#        169640
#        184245
#
# Disc length: 2690 seconds
#
# Revision: 3
# Processed by: cddbd v1.5.2PL0 Copyright (c) Steve Scherf et al.
# Submitted via: ExactAudioCopy v0.99pb5
#
DISCID=a90a800c
DTITLE=Johnnie Johnson - Johnnie B. Bad
DYEAR=1991
DGENRE=Blues
TTITLE0=Tanqueray
TTITLE1=Hush Oh Hush
TTITLE2=Johnnie B. Bad
TTITLE3=Creek Mud
TTITLE4=Fault Line Tremor
TTITLE5=Stepped In What!?
TTITLE6=Can You Stand It
TTITLE7=Key To The Highway
TTITLE8=Blues #572
TTITLE9=Baby What's Wrong
TTITLE10=Cow Cow Blues
TTITLE11=Movin' Out
EXTD=w/Keith Richards, Eric Clapton, and others.
EXTT0=
EXTT1=
EXTT2=
EXTT3=
EXTT4=
EXTT5=
EXTT6=
EXTT7=
EXTT8=
EXTT9=
EXTT10=
EXTT11=
PLAYORDER=
